<?xml version="1.0" encoding="utf-8"?>
<svg xmlns="http://www.w3.org/2000/svg" xmlns:xlink="http://www.w3.org/1999/xlink" xml:space="preserve" width="990" height="1155" viewBox="0 0 990 1155"><rect width="916.575" height="916.575" fill="#ffffff" x="41.25" y="41.25"/><g transform="scale(41.25)" fill="#000000"><path d="M22.7,0H1.3C0.6,0,0,0.6,0,1.3v25.3C0,27.4,0.6,28,1.3,28h21.3c0.7,0,1.3-0.6,1.3-1.3V1.3C24,0.6,23.4,0,22.7,0 z M23,22c0,0.6-0.5,1-1,1H2c-0.6,0-1-0.5-1-1V2c0-0.6,0.5-1,1-1h20c0.6,0,1,0.5,1,1V22z"/></g><g fill="#000000">
<g transform="translate(315,99) scale(4.12)"><rect width="6" height="6"/></g>
<g transform="translate(387,99) scale(4.12)"><rect width="6" height="6"/></g>
<g transform="translate(411,99) scale(4.12)"><rect width="6" height="6"/></g>
<g transform="translate(483,99) scale(4.12)"><rect width="6" height="6"/></g>
<g transform="translate(507,99) scale(4.12)"><rect width="6" height="6"/></g>
<g transform="translate(555,99) scale(4.12)"><rect width="6" height="6"/></g>
<g transform="translate(579,99) scale(4.12)"><rect width="6" height="6"/></g>
<g transform="translate(603,99) scale(4.12)"><rect width="6" height="6"/></g>
<g transform="translate(651,99) scale(4.12)"><rect width="6" height="6"/></g>
<g transform="translate(315,123) scale(4.12)"><rect width="6" height="6"/></g>
<g transform="translate(339,123) scale(4.12)"><rect width="6" height="6"/></g>
<g transform="translate(363,123) scale(4.12)"><rect width="6" height="6"/></g>
<g transform="translate(387,123) scale(4.12)"><rect width="6" height="6"/></g>
<g transform="translate(411,123) scale(4.12)"><rect width="6" height="6"/></g>
<g transform="translate(435,123) scale(4.12)"><rect width="6" height="6"/></g>
<g transform="translate(459,123) scale(4.12)"><rect width="6" height="6"/></g>
<g transform="translate(483,123) scale(4.12)"><rect width="6" height="6"/></g>
<g transform="translate(507,123) scale(4.12)"><rect width="6" height="6"/></g>
<g transform="translate(291,147) scale(4.12)"><rect width="6" height="6"/></g>
<g transform="translate(363,147) scale(4.12)"><rect width="6" height="6"/></g>
<g transform="translate(387,147) scale(4.12)"><rect width="6" height="6"/></g>
<g transform="translate(411,147) scale(4.12)"><rect width="6" height="6"/></g>
<g transform="translate(459,147) scale(4.12)"><rect width="6" height="6"/></g>
<g transform="translate(507,147) scale(4.12)"><rect width="6" height="6"/></g>
<g transform="translate(531,147) scale(4.12)"><rect width="6" height="6"/></g>
<g transform="translate(603,147) scale(4.12)"><rect width="6" height="6"/></g>
<g transform="translate(651,147) scale(4.12)"><rect width="6" height="6"/></g>
<g transform="translate(291,171) scale(4.12)"><rect width="6" height="6"/></g>
<g transform="translate(339,171) scale(4.12)"><rect width="6" height="6"/></g>
<g transform="translate(435,171) scale(4.12)"><rect width="6" height="6"/></g>
<g transform="translate(483,171) scale(4.12)"><rect width="6" height="6"/></g>
<g transform="translate(555,171) scale(4.12)"><rect width="6" height="6"/></g>
<g transform="translate(579,171) scale(4.12)"><rect width="6" height="6"/></g>
<g transform="translate(651,171) scale(4.12)"><rect width="6" height="6"/></g>
<g transform="translate(675,171) scale(4.12)"><rect width="6" height="6"/></g>
<g transform="translate(291,195) scale(4.12)"><rect width="6" height="6"/></g>
<g transform="translate(339,195) scale(4.12)"><rect width="6" height="6"/></g>
<g transform="translate(363,195) scale(4.12)"><rect width="6" height="6"/></g>
<g transform="translate(459,195) scale(4.12)"><rect width="6" height="6"/></g>
<g transform="translate(531,195) scale(4.12)"><rect width="6" height="6"/></g>
<g transform="translate(603,195) scale(4.12)"><rect width="6" height="6"/></g>
<g transform="translate(651,195) scale(4.12)"><rect width="6" height="6"/></g>
<g transform="translate(291,219) scale(4.12)"><rect width="6" height="6"/></g>
<g transform="translate(339,219) scale(4.12)"><rect width="6" height="6"/></g>
<g transform="translate(411,219) scale(4.12)"><rect width="6" height="6"/></g>
<g transform="translate(435,219) scale(4.12)"><rect width="6" height="6"/></g>
<g transform="translate(459,219) scale(4.12)"><rect width="6" height="6"/></g>
<g transform="translate(483,219) scale(4.12)"><rect width="6" height="6"/></g>
<g transform="translate(579,219) scale(4.12)"><rect width="6" height="6"/></g>
<g transform="translate(627,219) scale(4.12)"><rect width="6" height="6"/></g>
<g transform="translate(291,243) scale(4.12)"><rect width="6" height="6"/></g>
<g transform="translate(339,243) scale(4.12)"><rect width="6" height="6"/></g>
<g transform="translate(387,243) scale(4.12)"><rect width="6" height="6"/></g>
<g transform="translate(435,243) scale(4.12)"><rect width="6" height="6"/></g>
<g transform="translate(483,243) scale(4.12)"><rect width="6" height="6"/></g>
<g transform="translate(531,243) scale(4.12)"><rect width="6" height="6"/></g>
<g transform="translate(579,243) scale(4.12)"><rect width="6" height="6"/></g>
<g transform="translate(627,243) scale(4.12)"><rect width="6" height="6"/></g>
<g transform="translate(675,243) scale(4.12)"><rect width="6" height="6"/></g>
<g transform="translate(291,267) scale(4.12)"><rect width="6" height="6"/></g>
<g transform="translate(339,267) scale(4.12)"><rect width="6" height="6"/></g>
<g transform="translate(363,267) scale(4.12)"><rect width="6" height="6"/></g>
<g transform="translate(435,267) scale(4.12)"><rect width="6" height="6"/></g>
<g transform="translate(459,267) scale(4.12)"><rect width="6" height="6"/></g>
<g transform="translate(603,267) scale(4.12)"><rect width="6" height="6"/></g>
<g transform="translate(99,291) scale(4.12)"><rect width="6" height="6"/></g>
<g transform="translate(147,291) scale(4.12)"><rect width="6" height="6"/></g>
<g transform="translate(171,291) scale(4.12)"><rect width="6" height="6"/></g>
<g transform="translate(195,291) scale(4.12)"><rect width="6" height="6"/></g>
<g transform="translate(219,291) scale(4.12)"><rect width="6" height="6"/></g>
<g transform="translate(243,291) scale(4.12)"><rect width="6" height="6"/></g>
<g transform="translate(315,291) scale(4.12)"><rect width="6" height="6"/></g>
<g transform="translate(387,291) scale(4.12)"><rect width="6" height="6"/></g>
<g transform="translate(411,291) scale(4.12)"><rect width="6" height="6"/></g>
<g transform="translate(435,291) scale(4.12)"><rect width="6" height="6"/></g>
<g transform="translate(459,291) scale(4.12)"><rect width="6" height="6"/></g>
<g transform="translate(507,291) scale(4.12)"><rect width="6" height="6"/></g>
<g transform="translate(627,291) scale(4.12)"><rect width="6" height="6"/></g>
<g transform="translate(675,291) scale(4.12)"><rect width="6" height="6"/></g>
<g transform="translate(723,291) scale(4.12)"><rect width="6" height="6"/></g>
<g transform="translate(747,291) scale(4.12)"><rect width="6" height="6"/></g>
<g transform="translate(771,291) scale(4.12)"><rect width="6" height="6"/></g>
<g transform="translate(795,291) scale(4.12)"><rect width="6" height="6"/></g>
<g transform="translate(819,291) scale(4.12)"><rect width="6" height="6"/></g>
<g transform="translate(147,315) scale(4.12)"><rect width="6" height="6"/></g>
<g transform="translate(171,315) scale(4.12)"><rect width="6" height="6"/></g>
<g transform="translate(219,315) scale(4.12)"><rect width="6" height="6"/></g>
<g transform="translate(267,315) scale(4.12)"><rect width="6" height="6"/></g>
<g transform="translate(291,315) scale(4.12)"><rect width="6" height="6"/></g>
<g transform="translate(339,315) scale(4.12)"><rect width="6" height="6"/></g>
<g transform="translate(387,315) scale(4.12)"><rect width="6" height="6"/></g>
<g transform="translate(483,315) scale(4.12)"><rect width="6" height="6"/></g>
<g transform="translate(531,315) scale(4.12)"><rect width="6" height="6"/></g>
<g transform="translate(555,315) scale(4.12)"><rect width="6" height="6"/></g>
<g transform="translate(579,315) scale(4.12)"><rect width="6" height="6"/></g>
<g transform="translate(651,315) scale(4.12)"><rect width="6" height="6"/></g>
<g transform="translate(723,315) scale(4.12)"><rect width="6" height="6"/></g>
<g transform="translate(747,315) scale(4.12)"><rect width="6" height="6"/></g>
<g transform="translate(795,315) scale(4.12)"><rect width="6" height="6"/></g>
<g transform="translate(819,315) scale(4.12)"><rect width="6" height="6"/></g>
<g transform="translate(867,315) scale(4.12)"><rect width="6" height="6"/></g>
<g transform="translate(123,339) scale(4.12)"><rect width="6" height="6"/></g>
<g transform="translate(147,339) scale(4.12)"><rect width="6" height="6"/></g>
<g transform="translate(171,339) scale(4.12)"><rect width="6" height="6"/></g>
<g transform="translate(243,339) scale(4.12)"><rect width="6" height="6"/></g>
<g transform="translate(291,339) scale(4.12)"><rect width="6" height="6"/></g>
<g transform="translate(315,339) scale(4.12)"><rect width="6" height="6"/></g>
<g transform="translate(339,339) scale(4.12)"><rect width="6" height="6"/></g>
<g transform="translate(387,339) scale(4.12)"><rect width="6" height="6"/></g>
<g transform="translate(459,339) scale(4.12)"><rect width="6" height="6"/></g>
<g transform="translate(531,339) scale(4.12)"><rect width="6" height="6"/></g>
<g transform="translate(627,339) scale(4.12)"><rect width="6" height="6"/></g>
<g transform="translate(675,339) scale(4.12)"><rect width="6" height="6"/></g>
<g transform="translate(771,339) scale(4.12)"><rect width="6" height="6"/></g>
<g transform="translate(819,339) scale(4.12)"><rect width="6" height="6"/></g>
<g transform="translate(843,339) scale(4.12)"><rect width="6" height="6"/></g>
<g transform="translate(123,363) scale(4.12)"><rect width="6" height="6"/></g>
<g transform="translate(147,363) scale(4.12)"><rect width="6" height="6"/></g>
<g transform="translate(171,363) scale(4.12)"><rect width="6" height="6"/></g>
<g transform="translate(291,363) scale(4.12)"><rect width="6" height="6"/></g>
<g transform="translate(315,363) scale(4.12)"><rect width="6" height="6"/></g>
<g transform="translate(339,363) scale(4.12)"><rect width="6" height="6"/></g>
<g transform="translate(387,363) scale(4.12)"><rect width="6" height="6"/></g>
<g transform="translate(435,363) scale(4.12)"><rect width="6" height="6"/></g>
<g transform="translate(459,363) scale(4.12)"><rect width="6" height="6"/></g>
<g transform="translate(579,363) scale(4.12)"><rect width="6" height="6"/></g>
<g transform="translate(603,363) scale(4.12)"><rect width="6" height="6"/></g>
<g transform="translate(627,363) scale(4.12)"><rect width="6" height="6"/></g>
<g transform="translate(675,363) scale(4.12)"><rect width="6" height="6"/></g>
<g transform="translate(723,363) scale(4.12)"><rect width="6" height="6"/></g>
<g transform="translate(771,363) scale(4.12)"><rect width="6" height="6"/></g>
<g transform="translate(795,363) scale(4.12)"><rect width="6" height="6"/></g>
<g transform="translate(819,363) scale(4.12)"><rect width="6" height="6"/></g>
<g transform="translate(843,363) scale(4.12)"><rect width="6" height="6"/></g>
<g transform="translate(147,387) scale(4.12)"><rect width="6" height="6"/></g>
<g transform="translate(171,387) scale(4.12)"><rect width="6" height="6"/></g>
<g transform="translate(195,387) scale(4.12)"><rect width="6" height="6"/></g>
<g transform="translate(243,387) scale(4.12)"><rect width="6" height="6"/></g>
<g transform="translate(315,387) scale(4.12)"><rect width="6" height="6"/></g>
<g transform="translate(339,387) scale(4.12)"><rect width="6" height="6"/></g>
<g transform="translate(363,387) scale(4.12)"><rect width="6" height="6"/></g>
<g transform="translate(531,387) scale(4.12)"><rect width="6" height="6"/></g>
<g transform="translate(603,387) scale(4.12)"><rect width="6" height="6"/></g>
<g transform="translate(651,387) scale(4.12)"><rect width="6" height="6"/></g>
<g transform="translate(675,387) scale(4.12)"><rect width="6" height="6"/></g>
<g transform="translate(699,387) scale(4.12)"><rect width="6" height="6"/></g>
<g transform="translate(771,387) scale(4.12)"><rect width="6" height="6"/></g>
<g transform="translate(795,387) scale(4.12)"><rect width="6" height="6"/></g>
<g transform="translate(843,387) scale(4.12)"><rect width="6" height="6"/></g>
<g transform="translate(171,411) scale(4.12)"><rect width="6" height="6"/></g>
<g transform="translate(267,411) scale(4.12)"><rect width="6" height="6"/></g>
<g transform="translate(291,411) scale(4.12)"><rect width="6" height="6"/></g>
<g transform="translate(339,411) scale(4.12)"><rect width="6" height="6"/></g>
<g transform="translate(387,411) scale(4.12)"><rect width="6" height="6"/></g>
<g transform="translate(435,411) scale(4.12)"><rect width="6" height="6"/></g>
<g transform="translate(459,411) scale(4.12)"><rect width="6" height="6"/></g>
<g transform="translate(483,411) scale(4.12)"><rect width="6" height="6"/></g>
<g transform="translate(579,411) scale(4.12)"><rect width="6" height="6"/></g>
<g transform="translate(651,411) scale(4.12)"><rect width="6" height="6"/></g>
<g transform="translate(699,411) scale(4.12)"><rect width="6" height="6"/></g>
<g transform="translate(723,411) scale(4.12)"><rect width="6" height="6"/></g>
<g transform="translate(819,411) scale(4.12)"><rect width="6" height="6"/></g>
<g transform="translate(843,411) scale(4.12)"><rect width="6" height="6"/></g>
<g transform="translate(867,411) scale(4.12)"><rect width="6" height="6"/></g>
<g transform="translate(243,435) scale(4.12)"><rect width="6" height="6"/></g>
<g transform="translate(291,435) scale(4.12)"><rect width="6" height="6"/></g>
<g transform="translate(363,435) scale(4.12)"><rect width="6" height="6"/></g>
<g transform="translate(411,435) scale(4.12)"><rect width="6" height="6"/></g>
<g transform="translate(435,435) scale(4.12)"><rect width="6" height="6"/></g>
<g transform="translate(507,435) scale(4.12)"><rect width="6" height="6"/></g>
<g transform="translate(531,435) scale(4.12)"><rect width="6" height="6"/></g>
<g transform="translate(555,435) scale(4.12)"><rect width="6" height="6"/></g>
<g transform="translate(627,435) scale(4.12)"><rect width="6" height="6"/></g>
<g transform="translate(699,435) scale(4.12)"><rect width="6" height="6"/></g>
<g transform="translate(723,435) scale(4.12)"><rect width="6" height="6"/></g>
<g transform="translate(795,435) scale(4.12)"><rect width="6" height="6"/></g>
<g transform="translate(843,435) scale(4.12)"><rect width="6" height="6"/></g>
<g transform="translate(123,459) scale(4.12)"><rect width="6" height="6"/></g>
<g transform="translate(147,459) scale(4.12)"><rect width="6" height="6"/></g>
<g transform="translate(195,459) scale(4.12)"><rect width="6" height="6"/></g>
<g transform="translate(291,459) scale(4.12)"><rect width="6" height="6"/></g>
<g transform="translate(363,459) scale(4.12)"><rect width="6" height="6"/></g>
<g transform="translate(387,459) scale(4.12)"><rect width="6" height="6"/></g>
<g transform="translate(435,459) scale(4.12)"><rect width="6" height="6"/></g>
<g transform="translate(483,459) scale(4.12)"><rect width="6" height="6"/></g>
<g transform="translate(531,459) scale(4.12)"><rect width="6" height="6"/></g>
<g transform="translate(555,459) scale(4.12)"><rect width="6" height="6"/></g>
<g transform="translate(579,459) scale(4.12)"><rect width="6" height="6"/></g>
<g transform="translate(603,459) scale(4.12)"><rect width="6" height="6"/></g>
<g transform="translate(627,459) scale(4.12)"><rect width="6" height="6"/></g>
<g transform="translate(651,459) scale(4.12)"><rect width="6" height="6"/></g>
<g transform="translate(699,459) scale(4.12)"><rect width="6" height="6"/></g>
<g transform="translate(723,459) scale(4.12)"><rect width="6" height="6"/></g>
<g transform="translate(795,459) scale(4.12)"><rect width="6" height="6"/></g>
<g transform="translate(819,459) scale(4.12)"><rect width="6" height="6"/></g>
<g transform="translate(99,483) scale(4.12)"><rect width="6" height="6"/></g>
<g transform="translate(243,483) scale(4.12)"><rect width="6" height="6"/></g>
<g transform="translate(291,483) scale(4.12)"><rect width="6" height="6"/></g>
<g transform="translate(339,483) scale(4.12)"><rect width="6" height="6"/></g>
<g transform="translate(387,483) scale(4.12)"><rect width="6" height="6"/></g>
<g transform="translate(411,483) scale(4.12)"><rect width="6" height="6"/></g>
<g transform="translate(507,483) scale(4.12)"><rect width="6" height="6"/></g>
<g transform="translate(531,483) scale(4.12)"><rect width="6" height="6"/></g>
<g transform="translate(555,483) scale(4.12)"><rect width="6" height="6"/></g>
<g transform="translate(579,483) scale(4.12)"><rect width="6" height="6"/></g>
<g transform="translate(627,483) scale(4.12)"><rect width="6" height="6"/></g>
<g transform="translate(675,483) scale(4.12)"><rect width="6" height="6"/></g>
<g transform="translate(699,483) scale(4.12)"><rect width="6" height="6"/></g>
<g transform="translate(747,483) scale(4.12)"><rect width="6" height="6"/></g>
<g transform="translate(771,483) scale(4.12)"><rect width="6" height="6"/></g>
<g transform="translate(867,483) scale(4.12)"><rect width="6" height="6"/></g>
<g transform="translate(99,507) scale(4.12)"><rect width="6" height="6"/></g>
<g transform="translate(123,507) scale(4.12)"><rect width="6" height="6"/></g>
<g transform="translate(195,507) scale(4.12)"><rect width="6" height="6"/></g>
<g transform="translate(219,507) scale(4.12)"><rect width="6" height="6"/></g>
<g transform="translate(291,507) scale(4.12)"><rect width="6" height="6"/></g>
<g transform="translate(315,507) scale(4.12)"><rect width="6" height="6"/></g>
<g transform="translate(339,507) scale(4.12)"><rect width="6" height="6"/></g>
<g transform="translate(387,507) scale(4.12)"><rect width="6" height="6"/></g>
<g transform="translate(411,507) scale(4.12)"><rect width="6" height="6"/></g>
<g transform="translate(483,507) scale(4.12)"><rect width="6" height="6"/></g>
<g transform="translate(507,507) scale(4.12)"><rect width="6" height="6"/></g>
<g transform="translate(531,507) scale(4.12)"><rect width="6" height="6"/></g>
<g transform="translate(555,507) scale(4.12)"><rect width="6" height="6"/></g>
<g transform="translate(579,507) scale(4.12)"><rect width="6" height="6"/></g>
<g transform="translate(627,507) scale(4.12)"><rect width="6" height="6"/></g>
<g transform="translate(651,507) scale(4.12)"><rect width="6" height="6"/></g>
<g transform="translate(723,507) scale(4.12)"><rect width="6" height="6"/></g>
<g transform="translate(747,507) scale(4.12)"><rect width="6" height="6"/></g>
<g transform="translate(795,507) scale(4.12)"><rect width="6" height="6"/></g>
<g transform="translate(819,507) scale(4.12)"><rect width="6" height="6"/></g>
<g transform="translate(867,507) scale(4.12)"><rect width="6" height="6"/></g>
<g transform="translate(123,531) scale(4.12)"><rect width="6" height="6"/></g>
<g transform="translate(195,531) scale(4.12)"><rect width="6" height="6"/></g>
<g transform="translate(219,531) scale(4.12)"><rect width="6" height="6"/></g>
<g transform="translate(243,531) scale(4.12)"><rect width="6" height="6"/></g>
<g transform="translate(291,531) scale(4.12)"><rect width="6" height="6"/></g>
<g transform="translate(339,531) scale(4.12)"><rect width="6" height="6"/></g>
<g transform="translate(387,531) scale(4.12)"><rect width="6" height="6"/></g>
<g transform="translate(411,531) scale(4.12)"><rect width="6" height="6"/></g>
<g transform="translate(459,531) scale(4.12)"><rect width="6" height="6"/></g>
<g transform="translate(483,531) scale(4.12)"><rect width="6" height="6"/></g>
<g transform="translate(507,531) scale(4.12)"><rect width="6" height="6"/></g>
<g transform="translate(579,531) scale(4.12)"><rect width="6" height="6"/></g>
<g transform="translate(627,531) scale(4.12)"><rect width="6" height="6"/></g>
<g transform="translate(675,531) scale(4.12)"><rect width="6" height="6"/></g>
<g transform="translate(747,531) scale(4.12)"><rect width="6" height="6"/></g>
<g transform="translate(771,531) scale(4.12)"><rect width="6" height="6"/></g>
<g transform="translate(819,531) scale(4.12)"><rect width="6" height="6"/></g>
<g transform="translate(843,531) scale(4.12)"><rect width="6" height="6"/></g>
<g transform="translate(99,555) scale(4.12)"><rect width="6" height="6"/></g>
<g transform="translate(123,555) scale(4.12)"><rect width="6" height="6"/></g>
<g transform="translate(171,555) scale(4.12)"><rect width="6" height="6"/></g>
<g transform="translate(195,555) scale(4.12)"><rect width="6" height="6"/></g>
<g transform="translate(219,555) scale(4.12)"><rect width="6" height="6"/></g>
<g transform="translate(267,555) scale(4.12)"><rect width="6" height="6"/></g>
<g transform="translate(291,555) scale(4.12)"><rect width="6" height="6"/></g>
<g transform="translate(315,555) scale(4.12)"><rect width="6" height="6"/></g>
<g transform="translate(339,555) scale(4.12)"><rect width="6" height="6"/></g>
<g transform="translate(363,555) scale(4.12)"><rect width="6" height="6"/></g>
<g transform="translate(387,555) scale(4.12)"><rect width="6" height="6"/></g>
<g transform="translate(435,555) scale(4.12)"><rect width="6" height="6"/></g>
<g transform="translate(483,555) scale(4.12)"><rect width="6" height="6"/></g>
<g transform="translate(507,555) scale(4.12)"><rect width="6" height="6"/></g>
<g transform="translate(531,555) scale(4.12)"><rect width="6" height="6"/></g>
<g transform="translate(699,555) scale(4.12)"><rect width="6" height="6"/></g>
<g transform="translate(723,555) scale(4.12)"><rect width="6" height="6"/></g>
<g transform="translate(747,555) scale(4.12)"><rect width="6" height="6"/></g>
<g transform="translate(771,555) scale(4.12)"><rect width="6" height="6"/></g>
<g transform="translate(795,555) scale(4.12)"><rect width="6" height="6"/></g>
<g transform="translate(819,555) scale(4.12)"><rect width="6" height="6"/></g>
<g transform="translate(99,579) scale(4.12)"><rect width="6" height="6"/></g>
<g transform="translate(123,579) scale(4.12)"><rect width="6" height="6"/></g>
<g transform="translate(219,579) scale(4.12)"><rect width="6" height="6"/></g>
<g transform="translate(243,579) scale(4.12)"><rect width="6" height="6"/></g>
<g transform="translate(291,579) scale(4.12)"><rect width="6" height="6"/></g>
<g transform="translate(339,579) scale(4.12)"><rect width="6" height="6"/></g>
<g transform="translate(363,579) scale(4.12)"><rect width="6" height="6"/></g>
<g transform="translate(387,579) scale(4.12)"><rect width="6" height="6"/></g>
<g transform="translate(411,579) scale(4.12)"><rect width="6" height="6"/></g>
<g transform="translate(435,579) scale(4.12)"><rect width="6" height="6"/></g>
<g transform="translate(483,579) scale(4.12)"><rect width="6" height="6"/></g>
<g transform="translate(555,579) scale(4.12)"><rect width="6" height="6"/></g>
<g transform="translate(579,579) scale(4.12)"><rect width="6" height="6"/></g>
<g transform="translate(603,579) scale(4.12)"><rect width="6" height="6"/></g>
<g transform="translate(627,579) scale(4.12)"><rect width="6" height="6"/></g>
<g transform="translate(699,579) scale(4.12)"><rect width="6" height="6"/></g>
<g transform="translate(771,579) scale(4.12)"><rect width="6" height="6"/></g>
<g transform="translate(795,579) scale(4.12)"><rect width="6" height="6"/></g>
<g transform="translate(843,579) scale(4.12)"><rect width="6" height="6"/></g>
<g transform="translate(99,603) scale(4.12)"><rect width="6" height="6"/></g>
<g transform="translate(171,603) scale(4.12)"><rect width="6" height="6"/></g>
<g transform="translate(195,603) scale(4.12)"><rect width="6" height="6"/></g>
<g transform="translate(291,603) scale(4.12)"><rect width="6" height="6"/></g>
<g transform="translate(315,603) scale(4.12)"><rect width="6" height="6"/></g>
<g transform="translate(339,603) scale(4.12)"><rect width="6" height="6"/></g>
<g transform="translate(363,603) scale(4.12)"><rect width="6" height="6"/></g>
<g transform="translate(435,603) scale(4.12)"><rect width="6" height="6"/></g>
<g transform="translate(459,603) scale(4.12)"><rect width="6" height="6"/></g>
<g transform="translate(507,603) scale(4.12)"><rect width="6" height="6"/></g>
<g transform="translate(531,603) scale(4.12)"><rect width="6" height="6"/></g>
<g transform="translate(603,603) scale(4.12)"><rect width="6" height="6"/></g>
<g transform="translate(651,603) scale(4.12)"><rect width="6" height="6"/></g>
<g transform="translate(723,603) scale(4.12)"><rect width="6" height="6"/></g>
<g transform="translate(867,603) scale(4.12)"><rect width="6" height="6"/></g>
<g transform="translate(99,627) scale(4.12)"><rect width="6" height="6"/></g>
<g transform="translate(171,627) scale(4.12)"><rect width="6" height="6"/></g>
<g transform="translate(195,627) scale(4.12)"><rect width="6" height="6"/></g>
<g transform="translate(243,627) scale(4.12)"><rect width="6" height="6"/></g>
<g transform="translate(291,627) scale(4.12)"><rect width="6" height="6"/></g>
<g transform="translate(363,627) scale(4.12)"><rect width="6" height="6"/></g>
<g transform="translate(387,627) scale(4.12)"><rect width="6" height="6"/></g>
<g transform="translate(411,627) scale(4.12)"><rect width="6" height="6"/></g>
<g transform="translate(435,627) scale(4.12)"><rect width="6" height="6"/></g>
<g transform="translate(459,627) scale(4.12)"><rect width="6" height="6"/></g>
<g transform="translate(483,627) scale(4.12)"><rect width="6" height="6"/></g>
<g transform="translate(507,627) scale(4.12)"><rect width="6" height="6"/></g>
<g transform="translate(579,627) scale(4.12)"><rect width="6" height="6"/></g>
<g transform="translate(771,627) scale(4.12)"><rect width="6" height="6"/></g>
<g transform="translate(819,627) scale(4.12)"><rect width="6" height="6"/></g>
<g transform="translate(843,627) scale(4.12)"><rect width="6" height="6"/></g>
<g transform="translate(99,651) scale(4.12)"><rect width="6" height="6"/></g>
<g transform="translate(195,651) scale(4.12)"><rect width="6" height="6"/></g>
<g transform="translate(267,651) scale(4.12)"><rect width="6" height="6"/></g>
<g transform="translate(291,651) scale(4.12)"><rect width="6" height="6"/></g>
<g transform="translate(315,651) scale(4.12)"><rect width="6" height="6"/></g>
<g transform="translate(339,651) scale(4.12)"><rect width="6" height="6"/></g>
<g transform="translate(363,651) scale(4.12)"><rect width="6" height="6"/></g>
<g transform="translate(387,651) scale(4.12)"><rect width="6" height="6"/></g>
<g transform="translate(411,651) scale(4.12)"><rect width="6" height="6"/></g>
<g transform="translate(435,651) scale(4.12)"><rect width="6" height="6"/></g>
<g transform="translate(459,651) scale(4.12)"><rect width="6" height="6"/></g>
<g transform="translate(531,651) scale(4.12)"><rect width="6" height="6"/></g>
<g transform="translate(603,651) scale(4.12)"><rect width="6" height="6"/></g>
<g transform="translate(651,651) scale(4.12)"><rect width="6" height="6"/></g>
<g transform="translate(699,651) scale(4.12)"><rect width="6" height="6"/></g>
<g transform="translate(771,651) scale(4.12)"><rect width="6" height="6"/></g>
<g transform="translate(795,651) scale(4.12)"><rect width="6" height="6"/></g>
<g transform="translate(819,651) scale(4.12)"><rect width="6" height="6"/></g>
<g transform="translate(867,651) scale(4.12)"><rect width="6" height="6"/></g>
<g transform="translate(99,675) scale(4.12)"><rect width="6" height="6"/></g>
<g transform="translate(171,675) scale(4.12)"><rect width="6" height="6"/></g>
<g transform="translate(219,675) scale(4.12)"><rect width="6" height="6"/></g>
<g transform="translate(243,675) scale(4.12)"><rect width="6" height="6"/></g>
<g transform="translate(267,675) scale(4.12)"><rect width="6" height="6"/></g>
<g transform="translate(291,675) scale(4.12)"><rect width="6" height="6"/></g>
<g transform="translate(411,675) scale(4.12)"><rect width="6" height="6"/></g>
<g transform="translate(459,675) scale(4.12)"><rect width="6" height="6"/></g>
<g transform="translate(507,675) scale(4.12)"><rect width="6" height="6"/></g>
<g transform="translate(651,675) scale(4.12)"><rect width="6" height="6"/></g>
<g transform="translate(675,675) scale(4.12)"><rect width="6" height="6"/></g>
<g transform="translate(699,675) scale(4.12)"><rect width="6" height="6"/></g>
<g transform="translate(723,675) scale(4.12)"><rect width="6" height="6"/></g>
<g transform="translate(747,675) scale(4.12)"><rect width="6" height="6"/></g>
<g transform="translate(771,675) scale(4.12)"><rect width="6" height="6"/></g>
<g transform="translate(819,675) scale(4.12)"><rect width="6" height="6"/></g>
<g transform="translate(843,675) scale(4.12)"><rect width="6" height="6"/></g>
<g transform="translate(867,675) scale(4.12)"><rect width="6" height="6"/></g>
<g transform="translate(291,699) scale(4.12)"><rect width="6" height="6"/></g>
<g transform="translate(339,699) scale(4.12)"><rect width="6" height="6"/></g>
<g transform="translate(531,699) scale(4.12)"><rect width="6" height="6"/></g>
<g transform="translate(555,699) scale(4.12)"><rect width="6" height="6"/></g>
<g transform="translate(579,699) scale(4.12)"><rect width="6" height="6"/></g>
<g transform="translate(603,699) scale(4.12)"><rect width="6" height="6"/></g>
<g transform="translate(651,699) scale(4.12)"><rect width="6" height="6"/></g>
<g transform="translate(675,699) scale(4.12)"><rect width="6" height="6"/></g>
<g transform="translate(771,699) scale(4.12)"><rect width="6" height="6"/></g>
<g transform="translate(819,699) scale(4.12)"><rect width="6" height="6"/></g>
<g transform="translate(843,699) scale(4.12)"><rect width="6" height="6"/></g>
<g transform="translate(315,723) scale(4.12)"><rect width="6" height="6"/></g>
<g transform="translate(339,723) scale(4.12)"><rect width="6" height="6"/></g>
<g transform="translate(363,723) scale(4.12)"><rect width="6" height="6"/></g>
<g transform="translate(435,723) scale(4.12)"><rect width="6" height="6"/></g>
<g transform="translate(459,723) scale(4.12)"><rect width="6" height="6"/></g>
<g transform="translate(483,723) scale(4.12)"><rect width="6" height="6"/></g>
<g transform="translate(531,723) scale(4.12)"><rect width="6" height="6"/></g>
<g transform="translate(579,723) scale(4.12)"><rect width="6" height="6"/></g>
<g transform="translate(603,723) scale(4.12)"><rect width="6" height="6"/></g>
<g transform="translate(651,723) scale(4.12)"><rect width="6" height="6"/></g>
<g transform="translate(675,723) scale(4.12)"><rect width="6" height="6"/></g>
<g transform="translate(723,723) scale(4.12)"><rect width="6" height="6"/></g>
<g transform="translate(771,723) scale(4.12)"><rect width="6" height="6"/></g>
<g transform="translate(819,723) scale(4.12)"><rect width="6" height="6"/></g>
<g transform="translate(843,723) scale(4.12)"><rect width="6" height="6"/></g>
<g transform="translate(291,747) scale(4.12)"><rect width="6" height="6"/></g>
<g transform="translate(315,747) scale(4.12)"><rect width="6" height="6"/></g>
<g transform="translate(339,747) scale(4.12)"><rect width="6" height="6"/></g>
<g transform="translate(363,747) scale(4.12)"><rect width="6" height="6"/></g>
<g transform="translate(387,747) scale(4.12)"><rect width="6" height="6"/></g>
<g transform="translate(435,747) scale(4.12)"><rect width="6" height="6"/></g>
<g transform="translate(483,747) scale(4.12)"><rect width="6" height="6"/></g>
<g transform="translate(555,747) scale(4.12)"><rect width="6" height="6"/></g>
<g transform="translate(579,747) scale(4.12)"><rect width="6" height="6"/></g>
<g transform="translate(603,747) scale(4.12)"><rect width="6" height="6"/></g>
<g transform="translate(627,747) scale(4.12)"><rect width="6" height="6"/></g>
<g transform="translate(651,747) scale(4.12)"><rect width="6" height="6"/></g>
<g transform="translate(675,747) scale(4.12)"><rect width="6" height="6"/></g>
<g transform="translate(771,747) scale(4.12)"><rect width="6" height="6"/></g>
<g transform="translate(795,747) scale(4.12)"><rect width="6" height="6"/></g>
<g transform="translate(819,747) scale(4.12)"><rect width="6" height="6"/></g>
<g transform="translate(291,771) scale(4.12)"><rect width="6" height="6"/></g>
<g transform="translate(363,771) scale(4.12)"><rect width="6" height="6"/></g>
<g transform="translate(411,771) scale(4.12)"><rect width="6" height="6"/></g>
<g transform="translate(435,771) scale(4.12)"><rect width="6" height="6"/></g>
<g transform="translate(531,771) scale(4.12)"><rect width="6" height="6"/></g>
<g transform="translate(603,771) scale(4.12)"><rect width="6" height="6"/></g>
<g transform="translate(675,771) scale(4.12)"><rect width="6" height="6"/></g>
<g transform="translate(699,771) scale(4.12)"><rect width="6" height="6"/></g>
<g transform="translate(723,771) scale(4.12)"><rect width="6" height="6"/></g>
<g transform="translate(747,771) scale(4.12)"><rect width="6" height="6"/></g>
<g transform="translate(771,771) scale(4.12)"><rect width="6" height="6"/></g>
<g transform="translate(795,771) scale(4.12)"><rect width="6" height="6"/></g>
<g transform="translate(867,771) scale(4.12)"><rect width="6" height="6"/></g>
<g transform="translate(291,795) scale(4.12)"><rect width="6" height="6"/></g>
<g transform="translate(315,795) scale(4.12)"><rect width="6" height="6"/></g>
<g transform="translate(363,795) scale(4.12)"><rect width="6" height="6"/></g>
<g transform="translate(387,795) scale(4.12)"><rect width="6" height="6"/></g>
<g transform="translate(459,795) scale(4.12)"><rect width="6" height="6"/></g>
<g transform="translate(483,795) scale(4.12)"><rect width="6" height="6"/></g>
<g transform="translate(507,795) scale(4.12)"><rect width="6" height="6"/></g>
<g transform="translate(579,795) scale(4.12)"><rect width="6" height="6"/></g>
<g transform="translate(627,795) scale(4.12)"><rect width="6" height="6"/></g>
<g transform="translate(699,795) scale(4.12)"><rect width="6" height="6"/></g>
<g transform="translate(771,795) scale(4.12)"><rect width="6" height="6"/></g>
<g transform="translate(819,795) scale(4.12)"><rect width="6" height="6"/></g>
<g transform="translate(867,795) scale(4.12)"><rect width="6" height="6"/></g>
<g transform="translate(291,819) scale(4.12)"><rect width="6" height="6"/></g>
<g transform="translate(363,819) scale(4.12)"><rect width="6" height="6"/></g>
<g transform="translate(531,819) scale(4.12)"><rect width="6" height="6"/></g>
<g transform="translate(555,819) scale(4.12)"><rect width="6" height="6"/></g>
<g transform="translate(627,819) scale(4.12)"><rect width="6" height="6"/></g>
<g transform="translate(651,819) scale(4.12)"><rect width="6" height="6"/></g>
<g transform="translate(723,819) scale(4.12)"><rect width="6" height="6"/></g>
<g transform="translate(747,819) scale(4.12)"><rect width="6" height="6"/></g>
<g transform="translate(315,843) scale(4.12)"><rect width="6" height="6"/></g>
<g transform="translate(339,843) scale(4.12)"><rect width="6" height="6"/></g>
<g transform="translate(363,843) scale(4.12)"><rect width="6" height="6"/></g>
<g transform="translate(387,843) scale(4.12)"><rect width="6" height="6"/></g>
<g transform="translate(411,843) scale(4.12)"><rect width="6" height="6"/></g>
<g transform="translate(483,843) scale(4.12)"><rect width="6" height="6"/></g>
<g transform="translate(555,843) scale(4.12)"><rect width="6" height="6"/></g>
<g transform="translate(579,843) scale(4.12)"><rect width="6" height="6"/></g>
<g transform="translate(603,843) scale(4.12)"><rect width="6" height="6"/></g>
<g transform="translate(699,843) scale(4.12)"><rect width="6" height="6"/></g>
<g transform="translate(771,843) scale(4.12)"><rect width="6" height="6"/></g>
<g transform="translate(795,843) scale(4.12)"><rect width="6" height="6"/></g>
<g transform="translate(819,843) scale(4.12)"><rect width="6" height="6"/></g>
<g transform="translate(291,867) scale(4.12)"><rect width="6" height="6"/></g>
<g transform="translate(339,867) scale(4.12)"><rect width="6" height="6"/></g>
<g transform="translate(363,867) scale(4.12)"><rect width="6" height="6"/></g>
<g transform="translate(411,867) scale(4.12)"><rect width="6" height="6"/></g>
<g transform="translate(507,867) scale(4.12)"><rect width="6" height="6"/></g>
<g transform="translate(555,867) scale(4.12)"><rect width="6" height="6"/></g>
<g transform="translate(627,867) scale(4.12)"><rect width="6" height="6"/></g>
<g transform="translate(675,867) scale(4.12)"><rect width="6" height="6"/></g>
<g transform="translate(699,867) scale(4.12)"><rect width="6" height="6"/></g>
<g transform="translate(747,867) scale(4.12)"><rect width="6" height="6"/></g>
<g transform="translate(843,867) scale(4.12)"><rect width="6" height="6"/></g>
<g transform="translate(99,99)"><g transform="scale(12)"><path d="M0,0v14h14V0H0z M12,12H2V2h10V12z"/></g></g>
<g transform="translate(723,99)"><g transform="scale(12)"><path d="M0,0v14h14V0H0z M12,12H2V2h10V12z"/></g></g>
<g transform="translate(99,723)"><g transform="scale(12)"><path d="M0,0v14h14V0H0z M12,12H2V2h10V12z"/></g></g>
<g transform="translate(147,147)"><g transform="scale(12)"><rect width="6" height="6"/></g></g>
<g transform="translate(771,147)"><g transform="scale(12)"><rect width="6" height="6"/></g></g>
<g transform="translate(147,771)"><g transform="scale(12)"><rect width="6" height="6"/></g></g>
</g><g transform="translate(99,942.04373249876) scale(1.3045626750124)"><path fill="#FFFFFF" d="M32.5,118.9q5,0,8.85-2.7t3.85-8.15t-4.15-8.35t-11.8-5.05t-11.1-3.75t-6.55-4.2q-6.2-5.2-6.2-16.1q0-8.9,6.35-15.3t17.35-6.4q5.3,0,11.05,1.55t7.15,1.55t2.5-2l1.1,0l0.7,20.2l-1.6,0q-4.8-8.7-10.05-13.95t-11.4-5.25t-9.55,2.85t-3.4,7.6t4.05,7.3t9.95,4.15t7.75,2.2t4.6,1.65t4.5,2.2t3.7,2.9t3.05,3.85q2.7,4.8,2.7,11.4q0,10.8-6.75,17.35t-17.75,6.55q-5.7,0-13.05-1.5t-8.15-1.5q-1.4,0-2.7,3l-1.4,0l-1-23.8l1.7,0q4.4,8.7,11.25,15.2t14.45,6.5z M100,50.9q-15.5,0-15.5,29.9l0,7.9q0,14.2,4.1,22.25t12.1,8.05q11,0,20.2-21.4l1.8,0l-0.7,22.3l-1.1,0q-0.6-1.1-1.1-1.55t-1.45-0.45t-7.25,1.55t-12.8,1.55q-16.3,0-25.25-8.8t-8.95-26.45t9.35-27.25t25.15-9.6q6.1,0,11.95,1.55t6.85,1.55t1.5-0.45t1.1-1.55l1.1,0l0.8,21.7l-1.8,0q-4.5-10.1-9.25-15.45t-10.85-5.35z M172.2,118.1l-7.3-21.6l-19.8,0l-7.7,21.6l7.5,0l0,1.9l-15.3,0l0-1.9l4.7,0l25.5-68.7l8.2,0l25.2,68.7l4.6,0l0,1.9l-32.7,0l0-1.9l7.1,0z M155.4,68.1l-9.4,26.2l18.1,0z M257.4,51.9l0,68.1l-14,0l-34.3-64.7l0,62.8l5.5,0l0,1.9l-13.7,0l0-1.9l5.5,0l0-66.2l-5.5,0l0-1.9l27.6,0l26.2,50.2l0-48.3l-5.5,0l0-1.9l13.7,0l0,1.9l-5.5,0z M324.4,51.9l0,68.1l-14,0l-34.3-64.7l0,62.8l5.5,0l0,1.9l-13.7,0l0-1.9l5.5,0l0-66.2l-5.5,0l0-1.9l27.6,0l26.2,50.2l0-48.3l-5.5,0l0-1.9l13.7,0l0,1.9l-5.5,0z M334.5,50l52,0l1,19.8l-1.8,0q-4.2-10.1-8.8-13.85t-13.5-3.75l-3.5,0l0,30.9l3.4,0q4.7,0,7.9-3.55t4.5-9.55l1.5,0l0,29.6l-1.7,0q-1.8-7.5-4.85-10.7t-8.35-3.2l-2.4,0l0,32.1l3.8,0q9.2,0,15.65-5.5t8.85-14.1l2,0l-0.8,21.8l-54.9,0l0-2.2l5.9,0l0-65.6l-5.9,0l0-2.2z  M467.6,50l26.7,0l0,1.9l-5.5,0l0,66.2l5.5,0l0,1.9l-30.5,0l0-1.9l5.5,0l0-62.5l-0.4,0l-15,64.4l-12.5,0l-17.6-64.7l-0.4,0l0,62.8l5.5,0l0,1.9l-13.6,0l0-1.9l5.5,0l0-66.2l-5.5,0l0-1.9l27,0l13.3,51.5z M546.9,89.1l0-7.4q0-18.3-1.8-23.1q-2-5.5-5.7-6.8q-2.1-0.8-5.1-0.8t-5.15,0.8t-3.55,2.8t-2.25,4.2t-1.35,6.2q-0.6,5.8-0.6,17.1l0,7.2q0,12.2,0.95,17.35t2.35,7.35q3.1,4.9,9.6,4.9q7.9,0,10.25-6.65t2.35-23.15z M509.15,111.95q-8.25-9.05-8.25-26.2t8.85-27t25.05-9.85t24.45,9.35t8.25,26.55t-8.35,26.7t-25.05,9.5t-24.95-9.05z M574.1,50l30.5,0l0,1.9l-5.5,0l0,66.2l5.5,0l0,1.9l-30.5,0l0-1.9l5.5,0l0-66.2l-5.5,0l0-1.9z"/></g></svg>
